<?xml version="1.0" encoding="UTF-8" standalone="no"?>
<!-- Created with Inkscape (http://www.inkscape.org/) -->

<svg
   xmlns:dc="http://purl.org/dc/elements/1.1/"
   xmlns:cc="http://creativecommons.org/ns#"
   xmlns:rdf="http://www.w3.org/1999/02/22-rdf-syntax-ns#"
   xmlns:svg="http://www.w3.org/2000/svg"
   xmlns="http://www.w3.org/2000/svg"
   xmlns:xlink="http://www.w3.org/1999/xlink"
   version="1.1"
   width="400"
   height="400"
   id="svg2">
  <defs
     id="defs4">
    <linearGradient
       id="linearGradient4077">
      <stop
         id="stop4079"
         style="stop-color:#ffffff;stop-opacity:1"
         offset="0" />
      <stop
         id="stop4081"
         style="stop-color:#ffffff;stop-opacity:0"
         offset="1" />
    </linearGradient>
    <radialGradient
       cx="327.14285"
       cy="408.07648"
       r="189.77856"
       fx="327.14285"
       fy="408.07648"
       id="radialGradient4085"
       xlink:href="#linearGradient4077"
       gradientUnits="userSpaceOnUse" />
  </defs>
  <metadata
     id="metadata7">
    <rdf:RDF>
      <cc:Work
         rdf:about="">
        <dc:format>image/svg+xml</dc:format>
        <dc:type
           rdf:resource="http://purl.org/dc/dcmitype/StillImage" />
        <dc:title></dc:title>
      </cc:Work>
    </rdf:RDF>
  </metadata>
  <g
     transform="translate(0,-652.36218)"
     id="layer1">
    <path
       d="m 322.85715,558.07648 a 22.142857,22.142857 0 1 1 -44.28571,0 22.142857,22.142857 0 1 1 44.28571,0 z"
       transform="matrix(1.6411245,0,0,1.6411245,-292.60025,85.761842)"
       id="path3769-0-7-0-7"
       style="color:#000000;fill:#777777;fill-opacity:1;fill-rule:evenodd;stroke:#777777;stroke-width:1px;stroke-linecap:butt;stroke-linejoin:miter;stroke-miterlimit:4;stroke-opacity:1;stroke-dasharray:none;stroke-dashoffset:0;marker:none;visibility:visible;display:inline;overflow:visible;enable-background:accumulate" />
    <path
       d="m 508.57143,408.07648 a 181.42857,181.42857 0 1 1 -362.85715,0 181.42857,181.42857 0 1 1 362.85715,0 z"
       transform="matrix(0.58964427,0,0,0.58964427,5.0488285,611.84847)"
       id="path2985-58"
       style="opacity:0;fill:#ffffff;fill-opacity:0;fill-rule:evenodd;stroke:#000000;stroke-width:51.59995651;stroke-linecap:butt;stroke-linejoin:miter;stroke-miterlimit:4;stroke-opacity:1;stroke-dasharray:none" />
    <path
       d="m 508.57143,408.07648 a 181.42857,181.42857 0 1 1 -362.85715,0 181.42857,181.42857 0 1 1 362.85715,0 z"
       transform="matrix(0.96233267,0,0,0.96233267,-115.38624,460.22465)"
       id="path2985"
       style="fill:#ffffff;fill-opacity:0;fill-rule:evenodd;stroke:#777777;stroke-width:51.59962082;stroke-linecap:butt;stroke-linejoin:miter;stroke-miterlimit:4;stroke-opacity:1;stroke-dasharray:1238.39092886, 51.59962203;stroke-dashoffset:0" />
    <path
       d="m 322.85715,558.07648 a 22.142857,22.142857 0 1 1 -44.28571,0 22.142857,22.142857 0 1 1 44.28571,0 z"
       transform="matrix(1.3539035,0,0,1.3539035,-206.93991,5.95592)"
       id="path3769-0"
       style="color:#000000;fill:#777777;fill-opacity:1;fill-rule:evenodd;stroke:#777777;stroke-width:1px;stroke-linecap:butt;stroke-linejoin:miter;stroke-miterlimit:4;stroke-opacity:1;stroke-dasharray:none;stroke-dashoffset:0;marker:none;visibility:visible;display:inline;overflow:visible;enable-background:accumulate" />
    <path
       d="m 508.57143,408.07648 a 181.42857,181.42857 0 1 1 -362.85715,0 181.42857,181.42857 0 1 1 362.85715,0 z"
       transform="matrix(0.52664996,0,0,-0.52664996,27.279487,1067.0573)"
       id="path2985-5"
       style="opacity:0;fill:url(#radialGradient4085);fill-opacity:1;fill-rule:evenodd;stroke:#000000;stroke-width:16.70000076;stroke-linecap:butt;stroke-linejoin:miter;stroke-miterlimit:4;stroke-opacity:1;stroke-dasharray:none" />
    <path
       d="m 322.85715,558.07648 a 22.142857,22.142857 0 1 1 -44.28571,0 22.142857,22.142857 0 1 1 44.28571,0 z"
       transform="matrix(1.3539035,0,0,1.3539035,-275.76735,34.689242)"
       id="path3769-0-7"
       style="color:#000000;fill:#777777;fill-opacity:1;fill-rule:evenodd;stroke:#777777;stroke-width:1px;stroke-linecap:butt;stroke-linejoin:miter;stroke-miterlimit:4;stroke-opacity:1;stroke-dasharray:none;stroke-dashoffset:0;marker:none;visibility:visible;display:inline;overflow:visible;enable-background:accumulate" />
    <path
       d="m 322.85715,558.07648 a 22.142857,22.142857 0 1 1 -44.28571,0 22.142857,22.142857 0 1 1 44.28571,0 z"
       transform="matrix(1.3539035,0,0,1.3539035,-299.8303,103.6264)"
       id="path3769-0-7-0"
       style="color:#000000;fill:#777777;fill-opacity:1;fill-rule:evenodd;stroke:#777777;stroke-width:1px;stroke-linecap:butt;stroke-linejoin:miter;stroke-miterlimit:4;stroke-opacity:1;stroke-dasharray:none;stroke-dashoffset:0;marker:none;visibility:visible;display:inline;overflow:visible;enable-background:accumulate" />
    <path
       d="m 322.85715,558.07648 a 22.142857,22.142857 0 1 1 -44.28571,0 22.142857,22.142857 0 1 1 44.28571,0 z"
       transform="matrix(1.3539035,0,0,1.3539035,-141.14479,35.989944)"
       id="path3769-0-7-0-8"
       style="color:#000000;fill:#777777;fill-opacity:1;fill-rule:evenodd;stroke:#777777;stroke-width:1px;stroke-linecap:butt;stroke-linejoin:miter;stroke-miterlimit:4;stroke-opacity:1;stroke-dasharray:none;stroke-dashoffset:0;marker:none;visibility:visible;display:inline;overflow:visible;enable-background:accumulate" />
    <path
       d="m 322.85715,558.07648 a 22.142857,22.142857 0 1 1 -44.28571,0 22.142857,22.142857 0 1 1 44.28571,0 z"
       transform="matrix(1.3539035,0,0,1.3539035,-118.38252,106.87814)"
       id="path3769-0-7-0-86"
       style="color:#000000;fill:#777777;fill-opacity:1;fill-rule:evenodd;stroke:#777777;stroke-width:1px;stroke-linecap:butt;stroke-linejoin:miter;stroke-miterlimit:4;stroke-opacity:1;stroke-dasharray:none;stroke-dashoffset:0;marker:none;visibility:visible;display:inline;overflow:visible;enable-background:accumulate" />
  </g>
  <g
     transform="translate(0,-652.36218)"
     id="g3881">
    <path
       d="m 508.57143,408.07648 a 181.42857,181.42857 0 1 1 -362.85715,0 181.42857,181.42857 0 1 1 362.85715,0 z"
       transform="matrix(1.05159,0,0,1.05159,-143.61262,424.77432)"
       id="path3883"
       style="opacity:0;fill:#ffffff;fill-opacity:1;fill-rule:evenodd;stroke:#000000;stroke-width:16.70000076;stroke-linecap:butt;stroke-linejoin:miter;stroke-miterlimit:4;stroke-opacity:1;stroke-dasharray:none" />
  </g>
</svg>
